<svg width="104" height="32" viewBox="0 0 104 32" fill="none" xmlns="http://www.w3.org/2000/svg">
<path d="M24.6506 15.6679L24.7483 16.3046H33.0188C32.8095 16.6406 32.5841 16.9787 32.3391 17.3164L31.9768 17.7988C28.0451 22.8537 21.0086 28.7681 17.9905 31.0898L17.6897 31.3212L17.385 31.0937C12.8976 27.7281 6.20001 20.8414 3.42113 17.831V17.83C3.05229 17.4589 2.62722 16.9431 2.20433 16.3046H6.08422L6.30101 15.9287L10.1877 9.16011L13.4036 18.2597L13.9475 19.7998L14.761 18.3837L17.8703 12.9687L20.0412 16.747L21.0129 18.4394L21.4241 16.5312L23.386 7.4189L24.6506 15.6679ZM5.9309 0.420852C8.22556 -0.214867 10.6757 -0.0327956 12.2395 0.328079L12.2385 0.329055C13.7591 0.637335 15.0555 1.57826 16.0442 2.58491C16.7322 3.28548 17.2895 4.03839 17.6907 4.67964C18.1133 4.03137 18.7157 3.27135 19.4836 2.56636C20.5909 1.54984 22.066 0.62067 23.8567 0.322219L24.2561 0.259719C26.2579 -0.0312312 28.2913 0.00269258 30.1096 0.695266C31.9463 1.39498 33.5205 2.75099 34.6096 5.01656L34.8205 5.48238L34.8254 5.49312L34.8293 5.50386C35.435 7.11916 35.8091 10.7618 33.8479 14.8046H26.0354L24.2532 3.16597L22.7786 3.12105L20.3684 14.3056L18.5217 11.0898L17.8713 9.95699L17.2209 11.0898L14.2727 16.2197L11.0578 7.12105L10.5139 5.58198L9.70043 6.998L5.21703 14.8046H1.34789C0.203023 12.4639 -0.567091 9.19527 0.530506 5.53609L0.618397 5.2607C1.56292 2.45944 3.68812 1.04221 5.9309 0.420852Z" fill="url(#paint0_radial_210_1525)"/>
<path d="M43.8988 7.76658C44.7788 7.76658 45.5508 7.93858 46.2148 8.28258C46.8868 8.62658 47.4028 9.11858 47.7628 9.75858C48.1308 10.3906 48.3148 11.1266 48.3148 11.9666C48.3148 12.8066 48.1308 13.5426 47.7628 14.1746C47.4028 14.7986 46.8868 15.2826 46.2148 15.6266C45.5508 15.9706 44.7788 16.1426 43.8988 16.1426H40.9708V7.76658H43.8988ZM43.8388 14.7146C44.7188 14.7146 45.3988 14.4746 45.8788 13.9946C46.3588 13.5146 46.5988 12.8386 46.5988 11.9666C46.5988 11.0946 46.3588 10.4146 45.8788 9.92658C45.3988 9.43058 44.7188 9.18258 43.8388 9.18258H42.6508V14.7146H43.8388ZM50.4244 8.70258C50.1284 8.70258 49.8804 8.61058 49.6804 8.42658C49.4884 8.23458 49.3924 7.99858 49.3924 7.71858C49.3924 7.43858 49.4884 7.20658 49.6804 7.02258C49.8804 6.83058 50.1284 6.73458 50.4244 6.73458C50.7204 6.73458 50.9644 6.83058 51.1564 7.02258C51.3564 7.20658 51.4564 7.43858 51.4564 7.71858C51.4564 7.99858 51.3564 8.23458 51.1564 8.42658C50.9644 8.61058 50.7204 8.70258 50.4244 8.70258ZM51.2524 9.49458V16.1426H49.5724V9.49458H51.2524ZM59.8602 7.76658V16.1426H58.1802V12.5786H54.5922V16.1426H52.9122V7.76658H54.5922V11.2106H58.1802V7.76658H59.8602ZM67.8738 9.49458L63.7578 19.2866H61.9698L63.4098 15.9746L60.7458 9.49458H62.6298L64.3458 14.1386L66.0858 9.49458H67.8738ZM71.2308 11.9426C71.2308 11.1186 71.4148 10.3826 71.7828 9.73458C72.1588 9.07858 72.6668 8.57058 73.3068 8.21058C73.9548 7.84258 74.6788 7.65858 75.4788 7.65858C76.4148 7.65858 77.2348 7.89858 77.9388 8.37858C78.6428 8.85858 79.1348 9.52258 79.4148 10.3706H77.4828C77.2908 9.97058 77.0188 9.67058 76.6668 9.47058C76.3228 9.27058 75.9228 9.17058 75.4668 9.17058C74.9788 9.17058 74.5428 9.28658 74.1588 9.51858C73.7828 9.74258 73.4868 10.0626 73.2708 10.4786C73.0628 10.8946 72.9588 11.3826 72.9588 11.9426C72.9588 12.4946 73.0628 12.9826 73.2708 13.4066C73.4868 13.8226 73.7828 14.1466 74.1588 14.3786C74.5428 14.6026 74.9788 14.7146 75.4668 14.7146C75.9228 14.7146 76.3228 14.6146 76.6668 14.4146C77.0188 14.2066 77.2908 13.9026 77.4828 13.5026H79.4148C79.1348 14.3586 78.6428 15.0266 77.9388 15.5066C77.2428 15.9786 76.4228 16.2146 75.4788 16.2146C74.6788 16.2146 73.9548 16.0346 73.3068 15.6746C72.6668 15.3066 72.1588 14.7986 71.7828 14.1506C71.4148 13.5026 71.2308 12.7666 71.2308 11.9426ZM80.4177 12.7946C80.4177 12.1226 80.5497 11.5266 80.8137 11.0066C81.0857 10.4866 81.4497 10.0866 81.9057 9.80658C82.3697 9.52658 82.8857 9.38658 83.4537 9.38658C83.9497 9.38658 84.3817 9.48658 84.7497 9.68658C85.1257 9.88658 85.4257 10.1386 85.6497 10.4426V9.49458H87.3417V16.1426H85.6497V15.1706C85.4337 15.4826 85.1337 15.7426 84.7497 15.9506C84.3737 16.1506 83.9377 16.2506 83.4417 16.2506C82.8817 16.2506 82.3697 16.1066 81.9057 15.8186C81.4497 15.5306 81.0857 15.1266 80.8137 14.6066C80.5497 14.0786 80.4177 13.4746 80.4177 12.7946ZM85.6497 12.8186C85.6497 12.4106 85.5697 12.0626 85.4097 11.7746C85.2497 11.4786 85.0337 11.2546 84.7617 11.1026C84.4897 10.9426 84.1977 10.8626 83.8857 10.8626C83.5737 10.8626 83.2857 10.9386 83.0217 11.0906C82.7577 11.2426 82.5417 11.4666 82.3737 11.7626C82.2137 12.0506 82.1337 12.3946 82.1337 12.7946C82.1337 13.1946 82.2137 13.5466 82.3737 13.8506C82.5417 14.1466 82.7577 14.3746 83.0217 14.5346C83.2937 14.6946 83.5817 14.7746 83.8857 14.7746C84.1977 14.7746 84.4897 14.6986 84.7617 14.5466C85.0337 14.3866 85.2497 14.1626 85.4097 13.8746C85.5697 13.5786 85.6497 13.2266 85.6497 12.8186ZM90.6625 10.5266C90.8785 10.1746 91.1585 9.89858 91.5025 9.69858C91.8545 9.49858 92.2545 9.39858 92.7025 9.39858V11.1626H92.2585C91.7305 11.1626 91.3305 11.2866 91.0585 11.5346C90.7945 11.7826 90.6625 12.2146 90.6625 12.8306V16.1426H88.9825V9.49458H90.6625V10.5266ZM100.014 12.6746C100.014 12.9146 99.9981 13.1306 99.9661 13.3226H95.1061C95.1461 13.8026 95.3141 14.1786 95.6101 14.4506C95.9061 14.7226 96.2701 14.8586 96.7021 14.8586C97.3261 14.8586 97.7701 14.5906 98.0341 14.0546H99.8461C99.6541 14.6946 99.2861 15.2226 98.7421 15.6386C98.1981 16.0466 97.5301 16.2506 96.7381 16.2506C96.0981 16.2506 95.5221 16.1106 95.0101 15.8306C94.5061 15.5426 94.1101 15.1386 93.8221 14.6186C93.5421 14.0986 93.4021 13.4986 93.4021 12.8186C93.4021 12.1306 93.5421 11.5266 93.8221 11.0066C94.1021 10.4866 94.4941 10.0866 94.9981 9.80658C95.5021 9.52658 96.0821 9.38658 96.7381 9.38658C97.3701 9.38658 97.9341 9.52258 98.4301 9.79458C98.9341 10.0666 99.3221 10.4546 99.5941 10.9586C99.8741 11.4546 100.014 12.0266 100.014 12.6746ZM98.2741 12.1946C98.2661 11.7626 98.1101 11.4186 97.8061 11.1626C97.5021 10.8986 97.1301 10.7666 96.6901 10.7666C96.2741 10.7666 95.9221 10.8946 95.6341 11.1506C95.3541 11.3986 95.1821 11.7466 95.1181 12.1946H98.2741Z" fill="#43C0D9"/>
<defs>
<radialGradient id="paint0_radial_210_1525" cx="0" cy="0" r="1" gradientUnits="userSpaceOnUse" gradientTransform="translate(17.5248 15.0756) rotate(-180) scale(16.1503 18.1042)">
<stop stop-color="#43C0D9"/>
<stop offset="1" stop-color="#288598"/>
</radialGradient>
</defs>
</svg>
